<svg width="19" height="20" viewBox="0 0 19 20" fill="none" xmlns="http://www.w3.org/2000/svg">
<path d="M9.49612 6.59504C7.74612 6.59504 6.33527 8.07786 6.33527 9.8855C6.33527 11.6931 7.75969 13.176 9.49612 13.176C11.2326 13.176 12.657 11.6931 12.657 9.8855C12.657 8.07786 11.2326 6.59504 9.49612 6.59504ZM18.9922 9.8855C18.9922 8.51565 18.9922 7.17405 18.9244 5.8042C18.8566 4.22252 18.5039 2.81031 17.3915 1.66641C16.2791 0.508397 14.936 0.141221 13.4167 0.0706106C12.1008 -6.83918e-08 10.812 0 9.49612 0C8.18023 0 6.89147 -6.83918e-08 5.57558 0.0706106C4.0562 0.141221 2.69961 0.508397 1.60078 1.66641C0.488372 2.82443 0.135659 4.22252 0.0678294 5.8042C-6.5698e-08 7.17405 0 8.51565 0 9.8855C0 11.2553 -6.5698e-08 12.5969 0.0678294 13.9668C0.135659 15.5485 0.488372 16.9607 1.60078 18.1046C2.71318 19.2626 4.0562 19.6298 5.57558 19.7004C6.89147 19.771 8.18023 19.771 9.49612 19.771C10.812 19.771 12.1008 19.771 13.4167 19.7004C14.936 19.6298 16.2926 19.2626 17.3915 18.1046C18.5039 16.9466 18.8566 15.5485 18.9244 13.9668C19.0058 12.6111 18.9922 11.2553 18.9922 9.8855ZM9.49612 14.9553C6.79651 14.9553 4.62597 12.6958 4.62597 9.8855C4.62597 7.07519 6.79651 4.81565 9.49612 4.81565C12.1957 4.81565 14.3663 7.07519 14.3663 9.8855C14.3663 12.6958 12.1957 14.9553 9.49612 14.9553ZM14.5698 5.79008C13.9457 5.79008 13.4302 5.26756 13.4302 4.60382C13.4302 3.94008 13.9322 3.41756 14.5698 3.41756C15.2074 3.41756 15.7093 3.94008 15.7093 4.60382C15.7127 4.75851 15.6856 4.91228 15.6296 5.0556C15.5736 5.19893 15.4899 5.32875 15.3837 5.43702C15.2797 5.54756 15.155 5.63468 15.0173 5.69299C14.8796 5.75129 14.7319 5.77953 14.5833 5.77595L14.5698 5.79008Z" fill="white"/>
</svg>
